<svg width="57" height="50" viewBox="0 0 57 50" fill="none" xmlns="http://www.w3.org/2000/svg">
<g clip-path="url(#clip0_329_502)">
<path d="M27.0443 7.30688L25.4926 12.9385L16.2062 15.6718V26.395L10.9221 29.5538V17.2268L0.625488 20.2579L2.11583 14.6624L27.0443 7.30688Z" fill="white"/>
<path d="M22.0651 36.0263L16.4768 39.4914V28.6216L11.1932 31.7803C11.1932 31.7803 11.148 40.3393 10.4707 49.7028C10.485 49.7114 10.5206 49.6879 10.575 49.6364C11.4482 49.0827 17.6611 45.1499 21.7471 42.7417L22.0651 36.0263Z" fill="white"/>
<path d="M18.6221 17.0991V32.4422L28.2867 26.537V14.4219L18.6221 17.0997V17.0991ZM24.6963 23.7779L22.8221 24.8835L22.916 19.8221L24.6963 19.1299V23.7779Z" fill="white"/>
<path d="M23.5074 31.9292L23.0083 46.2629L28.2391 43.0669V41.0882L29.7444 40.4567V43.1889L34.1529 40.4951V25.2991L23.5074 31.9292ZM29.5186 36.079L28.1343 36.7706V32.9804L29.5186 32.1382V36.079Z" fill="white"/>
<path d="M42.6616 16.8684L43.2036 8.15884L30.4312 7.30688V25.2259L35.5044 22.1261V20.9078L38.575 24.5629L42.9997 21.8588L40.043 18.5386L42.6616 16.8684ZM37.476 14.1534L35.2173 14.9659V11.2655L37.6113 11.3559L37.476 14.1534Z" fill="white"/>
<path d="M43.1817 32.4417L44.3661 29.1021L42.9703 27.4783L35.8057 26.7563V42.7424L44.3896 37.5042L45.4863 34.381L43.1817 32.4423V32.4417ZM38.7629 29.4181L40.3059 29.5538L40.2005 30.8277L38.7629 31.7902V29.4175V29.4181ZM40.6675 35.64L38.7629 36.7708V33.8599L39.8922 33.5468L41.1791 34.5293L40.6675 35.6394V35.64Z" fill="white"/>
<path d="M44.5542 25.7573L44.7696 15.0684L50.4147 13.6467L48.0047 23.6491L44.5542 25.7573Z" fill="white"/>
<path d="M46.7933 26.5553L53.829 22.1387L53.9069 26.4116L50.249 28.4046L50.2203 29.6425L54.4616 27.3918L56.3771 33.1969L45.8565 39.626L47.3949 34.4462L50.5796 32.7617L50.6329 31.7077L47.2912 33.3142L45.0835 31.3498L46.7933 26.5553Z" fill="white"/>
<path d="M50.1657 0.375488V0.901087C50.1703 3.77413 51.7701 6.40785 54.3188 7.73788L54.7989 7.98865L54.2001 7.99495C51.3501 8.02472 48.7482 9.61927 47.4286 12.1436L47.1805 12.6183L47.1392 11.7377C47.0132 9.045 45.4913 6.61339 43.1243 5.32058L42.5479 5.00568L43.1455 4.99709C45.8695 4.95759 48.3711 3.48843 49.7314 1.13011L50.1663 0.376633L50.1657 0.375488Z" fill="white"/>
</g>
<defs>
<clipPath id="clip0_329_502">
<rect width="56.5104" height="50" fill="white" transform="translate(0.244629)"/>
</clipPath>
</defs>
</svg>
