<svg width="24" height="24" viewBox="0 0 24 24" fill="none" xmlns="http://www.w3.org/2000/svg">
<path d="M18.3697 4.41846C17.5664 4.41846 16.9639 5.02097 16.9639 5.82432C16.9639 6.62766 17.5664 7.23017 18.3697 7.23017C19.1731 7.23017 19.7756 6.62766 19.7756 5.82432C19.7756 5.02097 19.1731 4.41846 18.3697 4.41846Z" fill="#2B2B2B"/>
<path d="M12.0433 6.22595C8.72953 6.22595 6.11865 8.93725 6.11865 12.1506C6.11865 15.364 8.82995 18.0753 12.0433 18.0753C15.2567 18.0753 17.968 15.364 17.968 12.1506C17.968 8.93725 15.3571 6.22595 12.0433 6.22595ZM12.0433 15.9665C9.93455 15.9665 8.22744 14.2594 8.22744 12.1506C8.22744 10.0419 9.93455 8.33474 12.0433 8.33474C14.1521 8.33474 15.8592 10.0419 15.8592 12.1506C15.8592 14.2594 14.1521 15.9665 12.0433 15.9665Z" fill="#2B2B2B"/>
<path d="M16.8635 0H7.32371C3.20655 0 -0.00683594 3.21339 -0.00683594 7.23013V16.7699C-0.00683594 20.7866 3.20655 24 7.22329 24H16.763C20.7798 24 23.9932 20.7866 23.9932 16.7699V7.23013C24.0936 3.21339 20.8802 0 16.8635 0ZM21.784 16.8703C21.784 19.5816 19.5748 21.8912 16.763 21.8912H7.22329C4.51199 21.8912 2.20237 19.682 2.20237 16.8703V7.33054C2.20237 4.61925 4.41157 2.30962 7.22329 2.30962H16.763C19.4743 2.30962 21.784 4.51883 21.784 7.33054V16.8703Z" fill="#2B2B2B"/>
</svg>