<svg width="180" height="180" viewBox="0 0 180 180" fill="none" xmlns="http://www.w3.org/2000/svg">
<circle cx="90" cy="90" r="90" fill="#F4F4F4"/>
<g clip-path="url(#clip0_329_438)">
<path d="M86.9199 46.121L83.1033 60.0873L60.2612 66.866V93.4596L47.2638 101.293V70.7225L21.937 78.2395L25.6028 64.3627L86.9199 46.121Z" fill="#2B2B2B"/>
<path d="M74.6724 117.345L60.9266 125.939V98.9817L47.9306 106.815C47.9306 106.815 47.8192 128.042 46.1533 151.263C46.1886 151.284 46.2759 151.226 46.4098 151.098C48.5577 149.725 63.8398 139.972 73.8902 134L74.6724 117.345Z" fill="#2B2B2B"/>
<path d="M66.2031 70.4059V108.457L89.9754 93.8118V63.7663L66.2031 70.4073V70.4059ZM81.1441 86.9692L76.534 89.7111L76.7651 77.159L81.1441 75.4423V86.9692Z" fill="#2B2B2B"/>
<path d="M78.2198 107.185L76.9922 142.732L89.8585 134.806V129.899L93.561 128.333V135.109L104.405 128.428V90.7419L78.2198 107.185ZM93.0057 117.476L89.6006 119.191V109.792L93.0057 107.703V117.476Z" fill="#2B2B2B"/>
<path d="M125.334 69.8336L126.668 48.2338L95.251 46.121V90.5602L107.73 82.8727V79.8512L115.283 88.9159L126.166 82.2096L118.894 73.9755L125.334 69.8336ZM112.579 63.1004L107.024 65.1152V55.9383L112.912 56.1627L112.579 63.1004Z" fill="#2B2B2B"/>
<path d="M126.614 108.455L129.527 100.173L126.094 96.1461L108.471 94.3556V134.001L129.585 121.01L132.282 113.265L126.614 108.457V108.455ZM115.745 100.957L119.54 101.293L119.281 104.453L115.745 106.84V100.955V100.957ZM120.429 116.387L115.745 119.191V111.973L118.522 111.196L121.688 113.632L120.429 116.386V116.387Z" fill="#2B2B2B"/>
<path d="M129.99 91.8778L130.52 65.3694L144.405 61.8438L138.477 86.6497L129.99 91.8778Z" fill="#2B2B2B"/>
<path d="M135.498 93.8572L152.804 82.904L152.995 93.5008L143.998 98.4436L143.927 101.513L154.36 95.9317L159.071 110.328L133.193 126.273L136.977 113.427L144.811 109.249L144.942 106.635L136.722 110.619L131.292 105.748L135.498 93.8572Z" fill="#2B2B2B"/>
<path d="M143.792 28.9315V30.2349C143.803 37.3601 147.738 43.8917 154.007 47.1902L155.188 47.8121L153.716 47.8277C146.705 47.9016 140.305 51.856 137.059 58.1164L136.449 59.2936L136.348 57.1097C136.038 50.4319 132.294 44.4015 126.472 41.1953L125.054 40.4143L126.524 40.393C133.224 40.2951 139.378 36.6516 142.724 30.8029L143.793 28.9343L143.792 28.9315Z" fill="#2B2B2B"/>
</g>
<defs>
<clipPath id="clip0_329_438">
<rect width="139" height="124" fill="white" transform="translate(21 28)"/>
</clipPath>
</defs>
</svg>
