<svg width="68" height="60" viewBox="0 0 68 60" fill="none" xmlns="http://www.w3.org/2000/svg">
<g clip-path="url(#clip0_470_776)">
<path d="M32.2487 8.76825L30.3816 15.5261L19.207 18.8062V31.674L12.8486 35.4645V20.6722L0.458496 24.3095L2.25185 17.5949L32.2487 8.76825Z" fill="#2B2B2B"/>
<path d="M26.257 43.2317L19.5324 47.3898V34.346L13.1746 38.1365C13.1746 38.1365 13.1201 48.4073 12.3052 59.6434C12.3224 59.6538 12.3652 59.6256 12.4307 59.5638C13.4814 58.8994 20.9576 54.18 25.8743 51.2902L26.257 43.2317Z" fill="#2B2B2B"/>
<path d="M22.1138 20.519V38.9308L33.7434 31.8445V17.3063L22.1138 20.5197V20.519ZM29.423 28.5335L27.1677 29.8602L27.2808 23.7867L29.423 22.956V28.5335Z" fill="#2B2B2B"/>
<path d="M27.9926 38.3151L27.3921 55.5156L33.6864 51.6804V49.306L35.4977 48.5482V51.8268L40.8026 48.5942V30.359L27.9926 38.3151ZM35.226 43.2949L33.5602 44.1249V39.5766L35.226 38.5659V43.2949Z" fill="#2B2B2B"/>
<path d="M51.0413 20.2421L51.6936 9.79059L36.3242 8.76825V30.2711L42.4289 26.5513V25.0893L46.1239 29.4755L51.4481 26.2305L47.8904 22.2462L51.0413 20.2421ZM44.8015 16.9841L42.0835 17.959V13.5186L44.9642 13.6271L44.8015 16.9841Z" fill="#2B2B2B"/>
<path d="M51.6673 38.93L53.0924 34.9224L51.4129 32.9739L42.7915 32.1075V51.2909L53.1207 45.005L54.4404 41.2571L51.6673 38.9307V38.93ZM46.3499 35.3017L48.2067 35.4645L48.0799 36.9932L46.3499 38.1481V35.301V35.3017ZM48.6418 42.7679L46.3499 44.1249V40.6319L47.7089 40.256L49.2575 41.435L48.6418 42.7672V42.7679Z" fill="#2B2B2B"/>
<path d="M53.3188 30.9087L53.5781 18.082L60.3709 16.376L57.4709 28.3789L53.3188 30.9087Z" fill="#2B2B2B"/>
<path d="M56.0135 31.8664L64.4797 26.5665L64.5735 31.694L60.1718 34.0856L60.1373 35.571L65.2409 32.8702L67.5458 39.8363L54.8862 47.5512L56.7374 41.3354L60.5696 39.3141L60.6337 38.0493L56.6127 39.9771L53.9561 37.6198L56.0135 31.8664Z" fill="#2B2B2B"/>
<path d="M60.071 0.450684V1.0814C60.0765 4.52905 62.0016 7.68952 65.0684 9.28555L65.6462 9.58648L64.9257 9.59404C61.4962 9.62977 58.3652 11.5432 56.7773 14.5725L56.4788 15.142L56.4292 14.0853C56.2775 10.8541 54.4462 7.93617 51.5979 6.3848L50.9043 6.00691L51.6234 5.99661C54.9013 5.9492 57.9116 4.18621 59.5484 1.35622L60.0717 0.452058L60.071 0.450684Z" fill="#2B2B2B"/>
</g>
<defs>
<clipPath id="clip0_470_776">
<rect width="68" height="60" fill="white"/>
</clipPath>
</defs>
</svg>
