<svg width="1205" height="498" viewBox="0 0 1205 498" fill="none" xmlns="http://www.w3.org/2000/svg">
<path d="M1011.36 210.642L989.764 165.205L1030.89 136.231L1052.49 181.667L1011.36 210.642Z" fill="#EA1A7F"/>
<path d="M157.52 261.705L159.308 264.845C169.078 282.01 187.568 292.337 207.308 291.651L211.028 291.522L207.47 293.59C190.542 303.428 180.402 321.783 181.083 341.35L181.21 345.028L177.976 339.902C168.088 324.23 150.746 314.846 132.218 315.14L127.705 315.211L131.247 313.133C147.388 303.663 157.353 286.399 157.481 267.685L157.522 261.705L157.52 261.705Z" fill="#F9C73A"/>
<path d="M526.557 363.075L527.947 366.011C535.539 382.061 551.413 392.574 569.154 393.299L572.497 393.435L569.167 395.047C553.326 402.718 542.99 418.482 542.272 436.068L542.136 439.373L539.585 434.559C531.786 419.839 516.877 410.251 500.249 409.256L496.198 409.014L499.514 407.391C514.626 399.998 524.731 385.199 526.116 368.433L526.559 363.075L526.557 363.075Z" fill="#EA1A7F"/>
<path d="M1137.92 20.7645L1141.13 17.4389C1131.42 56.6921 1144.18 98.0955 1174.28 125.074L1173.94 124.994C1134.76 115.617 1093.59 128.562 1066.82 158.68C1066.82 158.68 1066.82 158.68 1066.82 158.68L1066.79 158.71L1067.75 153.955C1075.27 116.567 1062.76 77.9651 1034.74 52.0956L1033.62 51.0623L1034.3 51.2224C1034.3 51.2224 1034.3 51.2224 1034.3 51.2224C1071.8 60.0327 1111.15 48.4628 1137.92 20.7645Z" stroke="#F9C73A" stroke-width="4"/>
<path d="M243.809 89.3126L246.023 93.9913C258.12 119.565 283.412 136.315 311.68 137.471L317.007 137.688L311.702 140.257C286.46 152.478 269.991 177.596 268.847 205.617L268.631 210.884L264.567 203.213C252.139 179.759 228.385 164.481 201.891 162.896L195.436 162.51L200.72 159.924C224.798 148.145 240.899 124.565 243.106 97.8499L243.812 89.3136L243.809 89.3126Z" fill="#EA1A7F"/>
<path d="M1193.22 279.055L1192.66 281.214C1189.64 293.018 1193.42 305.525 1202.47 313.682L1204.18 315.219L1201.71 314.612C1189.98 311.721 1177.62 315.518 1169.53 324.491L1168.01 326.177L1168.78 322.517C1171.11 311.325 1167.43 299.729 1159.09 291.917L1157.05 290.014L1159.52 290.61C1170.74 293.327 1182.56 289.939 1190.64 281.691L1193.22 279.056L1193.22 279.055Z" fill="#F9C73A"/>
<path d="M677.338 335.185L687.902 355.681L669.489 369.562L658.925 349.065L677.338 335.185Z" fill="#F9C73A"/>
<path d="M465.153 480.305L445.756 467.837L454.762 446.61L474.159 459.078L465.153 480.305Z" fill="#F9C73A"/>
<path d="M710.052 381.629L732.991 393.854L724.824 418.53L701.885 406.306L710.052 381.629Z" fill="#F9C73A"/>
<path d="M413.6 456.44L387.622 457.323L382.356 431.869L408.334 430.986L413.6 456.44Z" fill="#F9C73A"/>
<path d="M666.156 427.224L679.959 449.249L660.587 466.581L646.784 444.555L666.156 427.224Z" fill="#F9C73A"/>
<path d="M428.817 395.006L405.85 382.833L413.961 358.138L436.928 370.311L428.817 395.006Z" fill="#F9C73A"/>
<rect x="999.945" y="349.768" width="47.8672" height="193.013" transform="rotate(-40 999.945 349.768)" fill="#EA1A7F"/>
<rect x="1021.77" y="488.68" width="47.8672" height="193.013" transform="rotate(-130 1021.77 488.68)" fill="#EA1A7F"/>
<mask id="path-15-inside-1_1_3" fill="white">
<path fill-rule="evenodd" clip-rule="evenodd" d="M140.1 50.1374L116.353 30.211L86.1417 66.2151L50.1376 36.0041L30.2112 59.7515L66.2153 89.9625L36.0043 125.967L59.7516 145.893L89.9627 109.889L125.967 140.1L145.893 116.353L109.889 86.1415L140.1 50.1374Z"/>
</mask>
<path d="M116.353 30.211L116.996 29.445L116.229 28.8022L115.587 29.5682L116.353 30.211ZM140.1 50.1374L140.866 50.7802L141.509 50.0142L140.743 49.3714L140.1 50.1374ZM86.1417 66.2151L85.4989 66.9812L86.265 67.6239L86.9077 66.8579L86.1417 66.2151ZM50.1376 36.0041L50.7804 35.238L50.0144 34.5953L49.3716 35.3613L50.1376 36.0041ZM30.2112 59.7515L29.4452 59.1087L28.8024 59.8747L29.5684 60.5175L30.2112 59.7515ZM66.2153 89.9625L66.9813 90.6053L67.6241 89.8392L66.8581 89.1964L66.2153 89.9625ZM36.0043 125.967L35.2382 125.324L34.5954 126.09L35.3615 126.733L36.0043 125.967ZM59.7516 145.893L59.1089 146.659L59.8749 147.302L60.5177 146.536L59.7516 145.893ZM89.9627 109.889L90.6055 109.123L89.8394 108.48L89.1966 109.246L89.9627 109.889ZM125.967 140.1L125.324 140.866L126.09 141.509L126.733 140.743L125.967 140.1ZM145.893 116.353L146.659 116.995L147.302 116.229L146.536 115.586L145.893 116.353ZM109.889 86.1415L109.123 85.4987L108.48 86.2648L109.246 86.9076L109.889 86.1415ZM115.71 30.9771L139.457 50.9035L140.743 49.3714L116.996 29.445L115.71 30.9771ZM86.9077 66.8579L117.119 30.8538L115.587 29.5682L85.3757 65.5723L86.9077 66.8579ZM49.4948 36.7701L85.4989 66.9812L86.7845 65.4491L50.7804 35.238L49.4948 36.7701ZM30.9772 60.3943L50.9037 36.6469L49.3716 35.3613L29.4452 59.1087L30.9772 60.3943ZM66.8581 89.1964L30.854 58.9854L29.5684 60.5175L65.5725 90.7285L66.8581 89.1964ZM36.7703 126.609L66.9813 90.6053L65.4492 89.3197L35.2382 125.324L36.7703 126.609ZM60.3944 145.127L36.6471 125.201L35.3615 126.733L59.1089 146.659L60.3944 145.127ZM89.1966 109.246L58.9856 145.25L60.5177 146.536L90.7287 110.532L89.1966 109.246ZM126.61 139.334L90.6055 109.123L89.3199 110.655L125.324 140.866L126.61 139.334ZM145.127 115.71L125.201 139.457L126.733 140.743L146.659 116.995L145.127 115.71ZM109.246 86.9076L145.25 117.119L146.536 115.586L110.532 85.3755L109.246 86.9076ZM139.334 49.4946L109.123 85.4987L110.655 86.7843L140.866 50.7802L139.334 49.4946Z" fill="#EA1A7F" mask="url(#path-15-inside-1_1_3)"/>
</svg>
