<svg width="32" height="32" viewBox="0 0 32 32" fill="none" xmlns="http://www.w3.org/2000/svg">
<path d="M11 4V6M6 11H4M28 11H26M6 16H4M28 16H26M6 21H4M28 21H26M11 26V28M16 4V6M16 26V28M21 4V6M21 26V28M9 26H23C23.7957 26 24.5587 25.6839 25.1213 25.1213C25.6839 24.5587 26 23.7957 26 23V9C26 8.20435 25.6839 7.44129 25.1213 6.87868C24.5587 6.31607 23.7957 6 23 6H9C8.20435 6 7.44129 6.31607 6.87868 6.87868C6.31607 7.44129 6 8.20435 6 9V23C6 23.7957 6.31607 24.5587 6.87868 25.1213C7.44129 25.6839 8.20435 26 9 26ZM10 10H22V22H10V10Z" stroke="#EA1A7F" stroke-width="1.5" stroke-linecap="round" stroke-linejoin="round"/>
</svg>
