<svg width="32" height="32" viewBox="0 0 32 32" fill="none" xmlns="http://www.w3.org/2000/svg">
<path d="M12 23V24.3427C12.0001 24.8681 11.8966 25.3885 11.6955 25.8739C11.4944 26.3594 11.1996 26.8005 10.828 27.172L10 28H22L21.172 27.172C20.8004 26.8005 20.5056 26.3594 20.3045 25.8739C20.1034 25.3885 19.9999 24.8681 20 24.3427V23M28 7V20C28 20.7956 27.6839 21.5587 27.1213 22.1213C26.5587 22.6839 25.7957 23 25 23H7C6.20435 23 5.44129 22.6839 4.87868 22.1213C4.31607 21.5587 4 20.7956 4 20V7M28 7C28 6.20435 27.6839 5.44129 27.1213 4.87868C26.5587 4.31607 25.7957 4 25 4H7C6.20435 4 5.44129 4.31607 4.87868 4.87868C4.31607 5.44129 4 6.20435 4 7M28 7V16C28 16.7956 27.6839 17.5587 27.1213 18.1213C26.5587 18.6839 25.7957 19 25 19H7C6.20435 19 5.44129 18.6839 4.87868 18.1213C4.31607 17.5587 4 16.7956 4 16V7" stroke="#EA1A7F" stroke-width="1.5" stroke-linecap="round" stroke-linejoin="round"/>
</svg>
