<svg width="32" height="32" viewBox="0 0 32 32" fill="none" xmlns="http://www.w3.org/2000/svg">
<path d="M16 28C18.66 27.9998 21.2446 27.1163 23.348 25.488C25.4515 23.8598 26.9546 21.5791 27.6213 19.004M16 28C13.34 27.9998 10.7554 27.1163 8.65197 25.488C6.54854 23.8598 5.04544 21.5791 4.37867 19.004M16 28C19.3133 28 22 22.6267 22 16C22 9.37334 19.3133 4 16 4M16 28C12.6867 28 10 22.6267 10 16C10 9.37334 12.6867 4 16 4M27.6213 19.004C27.868 18.044 28 17.0373 28 16C28.0033 13.9361 27.4718 11.9067 26.4573 10.1093M27.6213 19.004C24.0656 20.9752 20.0656 22.0064 16 22C11.784 22 7.82267 20.9133 4.37867 19.004M4.37867 19.004C4.12633 18.0226 3.9991 17.0133 4 16C4 13.86 4.56 11.8493 5.54267 10.1093M16 4C18.1283 3.99911 20.2186 4.56448 22.0563 5.63809C23.894 6.71169 25.4129 8.25489 26.4573 10.1093M16 4C13.8717 3.99911 11.7814 4.56448 9.94375 5.63809C8.10606 6.71169 6.58708 8.25489 5.54267 10.1093M26.4573 10.1093C23.5542 12.6239 19.8407 14.0055 16 14C12.0027 14 8.34667 12.5333 5.54267 10.1093" stroke="#EA1A7F" stroke-width="1.5" stroke-linecap="round" stroke-linejoin="round"/>
</svg>
